<svg xmlns="http://www.w3.org/2000/svg" width="51.923" height="51.923" viewBox="0 0 51.923 51.923">
  <defs>
    <style>
      .cls-1 {
        fill: #49c5b1;
      }

      .cls-2 {
        fill: #fff;
      }
    </style>
  </defs>
  <g id="Grupo_102" data-name="Grupo 102" transform="translate(-1450.539 -6150.077)">
    <path id="Caminho_39" data-name="Caminho 39" class="cls-1" d="M25.961,0A25.961,25.961,0,1,0,51.923,25.961,25.961,25.961,0,0,0,25.961,0" transform="translate(1450.539 6150.077)"/>
    <path id="Caminho_40" data-name="Caminho 40" class="cls-2" d="M56.137,39.294a.591.591,0,0,0-.4-.439,2.071,2.071,0,0,0-1.09.077S30.381,47.653,29,48.619c-.3.208-.4.329-.448.47-.24.688.507.991.507.991l6.253,2.038a.684.684,0,0,0,.317-.019c1.423-.9,14.313-9.039,15.057-9.312.117-.035.2,0,.181.086-.3,1.044-11.494,11-11.494,11a.547.547,0,0,0-.07.115l-.015-.009-.584,6.2s-.244,1.9,1.656,0c1.341-1.341,2.638-2.463,3.287-3.009,2.15,1.485,4.465,3.127,5.463,3.986a1.735,1.735,0,0,0,1.267.488c.948-.035,1.213-1.077,1.213-1.077s4.422-17.8,4.569-20.179c.015-.233.034-.382.036-.543a2.007,2.007,0,0,0-.054-.552" transform="translate(1433.001 6126.198)"/>
  </g>
</svg>
