<svg xmlns="http://www.w3.org/2000/svg" width="51.923" height="51.923" viewBox="0 0 51.923 51.923">
  <defs>
    <style>
      .cls-1 {
        fill: #49c5b1;
      }

      .cls-2 {
        fill: #fff;
      }
    </style>
  </defs>
  <g id="Grupo_98" data-name="Grupo 98" transform="translate(-1373.846 -6230.615)">
    <path id="Caminho_45" data-name="Caminho 45" class="cls-1" d="M51.923,25.961A25.961,25.961,0,1,1,25.961,0,25.961,25.961,0,0,1,51.923,25.961" transform="translate(1373.846 6230.615)"/>
    <path id="Caminho_46" data-name="Caminho 46" class="cls-2" d="M56.392,39.784a4.334,4.334,0,0,0-3.06-3.06C50.632,36,39.808,36,39.808,36s-10.825,0-13.524.723a4.334,4.334,0,0,0-3.06,3.06,45.035,45.035,0,0,0-.723,8.331,45.035,45.035,0,0,0,.723,8.331,4.334,4.334,0,0,0,3.06,3.06c2.7.723,13.524.723,13.524.723s10.825,0,13.524-.723a4.334,4.334,0,0,0,3.06-3.06,45.035,45.035,0,0,0,.723-8.331,45.035,45.035,0,0,0-.723-8.331M36.346,53.308V42.923l8.993,5.192Z" transform="translate(1360 6208.461)"/>
  </g>
</svg>
