<svg xmlns="http://www.w3.org/2000/svg" width="51.923" height="51.922" viewBox="0 0 51.923 51.922">
  <defs>
    <style>
      .cls-1 {
        fill: #49c5b1;
      }

      .cls-2 {
        fill: #fff;
      }
    </style>
  </defs>
  <g id="Grupo_99" data-name="Grupo 99" transform="translate(-1450.231 -6231)">
    <path id="Caminho_47" data-name="Caminho 47" class="cls-1" d="M51.923,25.961A25.961,25.961,0,1,0,21.9,51.607V33.466H15.313v-7.5H21.9v-5.72c0-6.506,3.876-10.1,9.806-10.1a39.907,39.907,0,0,1,5.812.507v6.389H34.249c-3.225,0-4.231,2-4.231,4.054v4.87h7.2l-1.151,7.5H30.018V51.607a25.968,25.968,0,0,0,21.9-25.646" transform="translate(1450.231 6231)"/>
    <path id="Caminho_48" data-name="Caminho 48" class="cls-2" d="M60.569,49.692l1.151-7.5h-7.2v-4.87c0-2.053,1.006-4.054,4.231-4.054h3.274V26.874a39.907,39.907,0,0,0-5.812-.507c-5.93,0-9.806,3.594-9.806,10.1v5.72H39.815v7.5h6.591V67.833a26.245,26.245,0,0,0,8.113,0V49.692Z" transform="translate(1425.729 6214.774)"/>
  </g>
</svg>
