<svg xmlns="http://www.w3.org/2000/svg" width="51.923" height="51.923" viewBox="0 0 51.923 51.923">
  <defs>
    <style>
      .cls-1 {
        fill: #49c5b1;
      }

      .cls-2 {
        fill: #fff;
        fill-rule: evenodd;
      }
    </style>
  </defs>
  <g id="Grupo_103" data-name="Grupo 103" transform="translate(-1373.539 -6149.846)">
    <path id="Caminho_37" data-name="Caminho 37" class="cls-1" d="M51.923,25.961A25.961,25.961,0,1,1,25.961,0,25.961,25.961,0,0,1,51.923,25.961" transform="translate(1373.539 6149.846)"/>
    <path id="Caminho_38" data-name="Caminho 38" class="cls-2" d="M54.758,28.135A16.471,16.471,0,0,0,28.837,48L26.5,56.533l8.731-2.29a16.457,16.457,0,0,0,7.87,2h.007a16.47,16.47,0,0,0,11.65-28.111M43.108,53.466H43.1a13.671,13.671,0,0,1-6.967-1.908l-.5-.3-5.181,1.359,1.383-5.05-.326-.518a13.689,13.689,0,1,1,11.6,6.413m7.508-10.249c-.412-.206-2.435-1.2-2.812-1.338s-.652-.206-.926.206-1.063,1.338-1.3,1.613-.48.309-.892.1a11.234,11.234,0,0,1-3.309-2.042,12.4,12.4,0,0,1-2.289-2.85c-.24-.412-.026-.635.18-.84.185-.185.412-.481.617-.721a2.812,2.812,0,0,0,.412-.687.758.758,0,0,0-.035-.721c-.1-.206-.926-2.231-1.268-3.054-.334-.8-.673-.694-.926-.706s-.514-.015-.788-.015a1.511,1.511,0,0,0-1.1.515,4.612,4.612,0,0,0-1.44,3.432,8,8,0,0,0,1.68,4.255c.206.275,2.9,4.43,7.03,6.212a23.771,23.771,0,0,0,2.346.867,5.639,5.639,0,0,0,2.592.163,4.238,4.238,0,0,0,2.778-1.956A3.441,3.441,0,0,0,51.4,43.7c-.1-.172-.377-.275-.789-.48" transform="translate(1357.231 6135.503)"/>
  </g>
</svg>
