<svg xmlns="http://www.w3.org/2000/svg" width="51.923" height="51.923" viewBox="0 0 51.923 51.923">
  <defs>
    <style>
      .cls-1 {
        fill: #49c5b1;
      }

      .cls-2 {
        fill: #fff;
      }
    </style>
  </defs>
  <g id="Grupo_101" data-name="Grupo 101" transform="translate(-1527.077 -6149.077)">
    <path id="Caminho_41" data-name="Caminho 41" class="cls-1" d="M25.961,0A25.961,25.961,0,1,1,0,25.961,25.961,25.961,0,0,1,25.961,0" transform="translate(1527.077 6149.077)"/>
    <path id="Caminho_42" data-name="Caminho 42" class="cls-2" d="M41.346,27.945c4.365,0,4.882.017,6.605.095a9.041,9.041,0,0,1,3.035.563,5.412,5.412,0,0,1,3.1,3.1,9.051,9.051,0,0,1,.563,3.035c.078,1.724.1,2.241.1,6.605s-.017,4.882-.1,6.605a9.051,9.051,0,0,1-.563,3.035,5.412,5.412,0,0,1-3.1,3.1,9.041,9.041,0,0,1-3.035.563c-1.723.078-2.24.1-6.605.1s-4.882-.017-6.605-.1a9.041,9.041,0,0,1-3.035-.563,5.412,5.412,0,0,1-3.1-3.1,9.041,9.041,0,0,1-.563-3.035c-.078-1.724-.095-2.241-.095-6.605s.017-4.882.095-6.605a9.041,9.041,0,0,1,.563-3.035,5.412,5.412,0,0,1,3.1-3.1,9.041,9.041,0,0,1,3.035-.563c1.724-.078,2.241-.095,6.605-.095m0-2.945c-4.439,0-5,.019-6.74.1a12,12,0,0,0-3.968.76,8.358,8.358,0,0,0-4.781,4.781,12,12,0,0,0-.76,3.968c-.08,1.743-.1,2.3-.1,6.74s.019,5,.1,6.74a12,12,0,0,0,.76,3.968,8.358,8.358,0,0,0,4.781,4.781,12,12,0,0,0,3.968.76c1.743.08,2.3.1,6.74.1s5-.019,6.74-.1a12,12,0,0,0,3.968-.76,8.358,8.358,0,0,0,4.781-4.781,12,12,0,0,0,.76-3.968c.08-1.743.1-2.3.1-6.74s-.019-5-.1-6.74a12,12,0,0,0-.76-3.968,8.358,8.358,0,0,0-4.781-4.781,12,12,0,0,0-3.968-.76c-1.743-.08-2.3-.1-6.74-.1" transform="translate(1511.693 6133.692)"/>
    <path id="Caminho_43" data-name="Caminho 43" class="cls-2" d="M54.07,45.676a8.394,8.394,0,1,0,8.394,8.394,8.394,8.394,0,0,0-8.394-8.394m0,13.843a5.449,5.449,0,1,1,5.449-5.449,5.449,5.449,0,0,1-5.449,5.449" transform="translate(1498.969 6120.968)"/>
    <path id="Caminho_44" data-name="Caminho 44" class="cls-2" d="M89.01,41.675a1.962,1.962,0,1,1-1.962-1.962,1.961,1.961,0,0,1,1.962,1.962" transform="translate(1474.716 6124.638)"/>
  </g>
</svg>
