<svg xmlns="http://www.w3.org/2000/svg" width="51.923" height="51.923" viewBox="0 0 51.923 51.923">
  <defs>
    <style>
      .cls-1 {
        fill: #49c5b1;
      }

      .cls-2 {
        fill: #fefefe;
      }
    </style>
  </defs>
  <g id="Grupo_100" data-name="Grupo 100" transform="translate(-1526.154 -6230.846)">
    <path id="Caminho_49" data-name="Caminho 49" class="cls-1" d="M51.923,25.961A25.961,25.961,0,1,1,25.961,0,25.961,25.961,0,0,1,51.923,25.961" transform="translate(1526.154 6230.846)"/>
    <path id="Caminho_50" data-name="Caminho 50" class="cls-2" d="M62.944,53.056c.427-.479.778-.965,1.216-1.378a6.669,6.669,0,0,1,4.8-1.893,11.108,11.108,0,0,1,3.017.367,5.9,5.9,0,0,1,4.187,4.4,18.457,18.457,0,0,1,.558,5.046c.006,3.587-.01,7.173,0,10.759,0,.336-.093.424-.424.421q-2.771-.022-5.543,0c-.325,0-.4-.1-.394-.405q.015-5.118,0-10.237a9.2,9.2,0,0,0-.3-2.541,2.858,2.858,0,0,0-3.143-2.227c-2.191.116-3.33,1.2-3.61,3.428a12.8,12.8,0,0,0-.1,1.6c0,3.319,0,6.638.009,9.956,0,.331-.082.428-.42.426q-2.792-.025-5.583,0c-.3,0-.385-.078-.384-.38q.012-9.856,0-19.712c0-.325.106-.4.413-.4q2.651.02,5.3,0c.325,0,.409.1.4.41-.018.785-.006,1.571-.006,2.356" transform="translate(1491.179 6200.209)"/>
    <path id="Caminho_51" data-name="Caminho 51" class="cls-2" d="M36.195,61.372c0,3.251-.005,6.5.008,9.752,0,.361-.088.47-.462.466-1.847-.02-3.694-.015-5.541,0-.3,0-.385-.072-.385-.378q.013-9.872,0-19.744c0-.272.066-.369.355-.368,1.874.012,3.747.016,5.621,0,.36,0,.409.136.408.445q-.014,4.916-.006,9.832" transform="translate(1507.806 6199.402)"/>
    <path id="Caminho_52" data-name="Caminho 52" class="cls-2" d="M35.922,28.271a3.689,3.689,0,1,1-3.683-3.67,3.7,3.7,0,0,1,3.683,3.67" transform="translate(1508.588 6215.707)"/>
  </g>
</svg>
