<svg width="24" height="24" viewBox="0 0 24 24" fill="none" xmlns="http://www.w3.org/2000/svg">
<path d="M17.192 22.4609L17.1916 22.4611C17.1305 22.4864 17.065 22.4996 16.9988 22.5H3C2.86739 22.5 2.74021 22.4473 2.64645 22.3536C2.55268 22.2598 2.5 22.1326 2.5 22V2C2.5 1.86739 2.55268 1.74021 2.64645 1.64645C2.74021 1.55268 2.86739 1.5 3 1.5H21C21.1326 1.5 21.2598 1.55268 21.3536 1.64645C21.4473 1.74021 21.5 1.86739 21.5 2V17.9864C21.4911 18.1254 21.4365 18.2576 21.3446 18.3623L17.3545 22.3524C17.3545 22.3524 17.3545 22.3524 17.3544 22.3524C17.3079 22.3989 17.2527 22.4358 17.192 22.4609ZM16 21.5H16.5V21V18C16.5 17.8674 16.5527 17.7402 16.6464 17.6464C16.7402 17.5527 16.8674 17.5 17 17.5H20H20.5V17V3V2.5H20H4H3.5V3V21V21.5H4H16ZM16.5 10C16.5 10.1326 16.4473 10.2598 16.3536 10.3536C16.2598 10.4473 16.1326 10.5 16 10.5H8C7.86739 10.5 7.74022 10.4473 7.64645 10.3536C7.55268 10.2598 7.5 10.1326 7.5 10C7.5 9.86739 7.55268 9.74022 7.64645 9.64645C7.74022 9.55268 7.86739 9.5 8 9.5H16C16.1326 9.5 16.2598 9.55268 16.3536 9.64645C16.4473 9.74021 16.5 9.86739 16.5 10ZM12.5 14C12.5 14.1326 12.4473 14.2598 12.3536 14.3536C12.2598 14.4473 12.1326 14.5 12 14.5H8C7.86739 14.5 7.74022 14.4473 7.64645 14.3536C7.55268 14.2598 7.5 14.1326 7.5 14C7.5 13.8674 7.55268 13.7402 7.64645 13.6464C7.74022 13.5527 7.86739 13.5 8 13.5H12C12.1326 13.5 12.2598 13.5527 12.3536 13.6464C12.4473 13.7402 12.5 13.8674 12.5 14Z" stroke="#045BC8"/>
</svg>
