<svg width="20" height="14" viewBox="0 0 20 14" fill="none" xmlns="http://www.w3.org/2000/svg">
<path d="M11.103 13.4141L19.5574 3.11347C19.6976 2.94429 19.809 2.74301 19.8849 2.52124C19.9609 2.29946 20 2.06159 20 1.82134C20 1.58109 19.9609 1.34322 19.8849 1.12145C19.809 0.89968 19.6976 0.698397 19.5574 0.529214C19.277 0.190255 18.8978 0 18.5024 0C18.1071 0 17.7279 0.190255 17.4475 0.529214L9.96573 9.53772L2.55877 0.529214C2.27841 0.190255 1.89915 0 1.50384 0C1.10852 0 0.729267 0.190255 0.448906 0.529214C0.307518 0.697763 0.195036 0.898762 0.117979 1.12056C0.0409203 1.34236 0.000822067 1.58056 0 1.82134C0.000822067 2.06213 0.0409203 2.30032 0.117979 2.52212C0.195036 2.74393 0.307518 2.94492 0.448906 3.11347L8.90332 13.4141C9.04344 13.5988 9.21351 13.7463 9.40279 13.8471C9.59208 13.9479 9.79649 14 10.0031 14C10.2098 14 10.4142 13.9479 10.6035 13.8471C10.7928 13.7463 10.9628 13.5988 11.103 13.4141Z" fill="#045BC8"/>
</svg>
