<svg width="20" height="14" viewBox="0 0 20 14" fill="none" xmlns="http://www.w3.org/2000/svg">
<path d="M8.89704 0.585764L0.44262 10.8864C0.302369 11.0556 0.191049 11.2569 0.115081 11.4786C0.0391125 11.7004 0 11.9383 0 12.1785C0 12.4188 0.0391125 12.6567 0.115081 12.8784C0.191049 13.1002 0.302369 13.3015 0.44262 13.4707C0.722981 13.8096 1.10224 13.9999 1.49755 13.9999C1.89287 13.9999 2.27212 13.8096 2.55248 13.4707L10.0343 4.46215L17.4412 13.4707C17.7216 13.8096 18.1008 13.9999 18.4962 13.9999C18.8915 13.9999 19.2707 13.8096 19.5511 13.4707C19.6925 13.3021 19.805 13.1011 19.882 12.8793C19.9591 12.6575 19.9992 12.4193 20 12.1785C19.9992 11.9377 19.9591 11.6996 19.882 11.4778C19.805 11.256 19.6925 11.055 19.5511 10.8864L11.0967 0.585764C10.9566 0.401035 10.7865 0.253608 10.5972 0.152772C10.4079 0.0519361 10.2035 -0.000123024 9.99686 -0.000123024C9.79021 -0.000123024 9.5858 0.0519361 9.39651 0.152772C9.20722 0.253608 9.03716 0.401035 8.89704 0.585764Z" fill="#045BC8"/>
</svg>
