<svg width="52" height="52" viewBox="0 0 52 52" fill="none" xmlns="http://www.w3.org/2000/svg">
<g id="Button: redondo com &#195;&#173;cone">
<g id="Ellipse 2" filter="url(#filter0_d_550_11296)">
<circle cx="26" cy="22" r="16" fill="#045BC8"/>
</g>
<g id="u:camera-plus">
<g id="Vector">
<mask id="path-2-inside-1_550_11296" fill="white">
<path d="M33.1106 20.6668C32.8748 20.6668 32.6487 20.7604 32.482 20.9271C32.3153 21.0938 32.2217 21.3199 32.2217 21.5557V27.7779C32.2217 28.0136 32.128 28.2397 31.9613 28.4064C31.7946 28.5731 31.5685 28.6668 31.3328 28.6668H18.8883C18.6526 28.6668 18.4265 28.5731 18.2598 28.4064C18.0931 28.2397 17.9995 28.0136 17.9995 27.7779V20.6668C17.9995 20.431 18.0931 20.2049 18.2598 20.0382C18.4265 19.8715 18.6526 19.7779 18.8883 19.7779H20.6661C20.86 19.788 21.0518 19.7344 21.2123 19.6253C21.3728 19.5161 21.4932 19.3574 21.555 19.1734L22.035 17.7157C22.0946 17.5391 22.2083 17.3858 22.3598 17.2773C22.5113 17.1688 22.6931 17.1107 22.8795 17.1112H27.7772C28.013 17.1112 28.2391 17.0176 28.4058 16.8509C28.5725 16.6842 28.6661 16.4581 28.6661 16.2223C28.6661 15.9866 28.5725 15.7605 28.4058 15.5938C28.2391 15.4271 28.013 15.3334 27.7772 15.3334H22.835C22.2764 15.3345 21.7322 15.5109 21.2792 15.8379C20.8263 16.1648 20.4875 16.6258 20.3106 17.1557L20.0261 18.0446H18.8883C18.1811 18.0446 17.5028 18.3255 17.0027 18.8256C16.5026 19.3257 16.2217 20.004 16.2217 20.7112V27.8223C16.2217 28.5296 16.5026 29.2079 17.0027 29.7079C17.5028 30.208 18.1811 30.489 18.8883 30.489H31.3328C32.04 30.489 32.7183 30.208 33.2184 29.7079C33.7185 29.2079 33.9995 28.5296 33.9995 27.8223V21.6001C34.0055 21.4797 33.987 21.3593 33.945 21.2463C33.903 21.1333 33.8385 21.0299 33.7554 20.9426C33.6722 20.8553 33.5722 20.7859 33.4613 20.7384C33.3505 20.691 33.2311 20.6666 33.1106 20.6668V20.6668ZM25.1106 19.7779C24.4073 19.7779 23.7199 19.9864 23.1352 20.3771C22.5505 20.7678 22.0948 21.3231 21.8257 21.9728C21.5566 22.6225 21.4861 23.3374 21.6233 24.0271C21.7605 24.7168 22.0992 25.3503 22.5964 25.8476C23.0937 26.3449 23.7272 26.6835 24.4169 26.8207C25.1066 26.9579 25.8215 26.8875 26.4712 26.6183C27.1209 26.3492 27.6762 25.8935 28.0669 25.3088C28.4576 24.7241 28.6661 24.0367 28.6661 23.3334C28.6661 22.3904 28.2915 21.4861 27.6247 20.8193C26.9579 20.1525 26.0536 19.7779 25.1106 19.7779V19.7779ZM25.1106 25.1112C24.759 25.1112 24.4152 25.007 24.1229 24.8116C23.8305 24.6163 23.6027 24.3386 23.4681 24.0138C23.3336 23.6889 23.2984 23.3315 23.3669 22.9866C23.4355 22.6418 23.6049 22.325 23.8535 22.0764C24.1021 21.8277 24.4189 21.6584 24.7637 21.5898C25.1086 21.5212 25.466 21.5564 25.7909 21.691C26.1157 21.8255 26.3934 22.0534 26.5887 22.3458C26.7841 22.6381 26.8883 22.9818 26.8883 23.3334C26.8883 23.8049 26.701 24.2571 26.3676 24.5905C26.0342 24.9239 25.5821 25.1112 25.1106 25.1112ZM34.8883 15.3334H33.9995V14.4446C33.9995 14.2088 33.9058 13.9827 33.7391 13.816C33.5724 13.6493 33.3463 13.5557 33.1106 13.5557C32.8748 13.5557 32.6487 13.6493 32.482 13.816C32.3153 13.9827 32.2217 14.2088 32.2217 14.4446V15.3334H31.3328C31.097 15.3334 30.8709 15.4271 30.7042 15.5938C30.5375 15.7605 30.4439 15.9866 30.4439 16.2223C30.4439 16.4581 30.5375 16.6842 30.7042 16.8509C30.8709 17.0176 31.097 17.1112 31.3328 17.1112H32.2217V18.0001C32.2217 18.2359 32.3153 18.4619 32.482 18.6286C32.6487 18.7953 32.8748 18.889 33.1106 18.889C33.3463 18.889 33.5724 18.7953 33.7391 18.6286C33.9058 18.4619 33.9995 18.2359 33.9995 18.0001V17.1112H34.8883C35.1241 17.1112 35.3502 17.0176 35.5169 16.8509C35.6836 16.6842 35.7772 16.4581 35.7772 16.2223C35.7772 15.9866 35.6836 15.7605 35.5169 15.5938C35.3502 15.4271 35.1241 15.3334 34.8883 15.3334Z"/>
</mask>
<path d="M33.1106 20.6668C32.8748 20.6668 32.6487 20.7604 32.482 20.9271C32.3153 21.0938 32.2217 21.3199 32.2217 21.5557V27.7779C32.2217 28.0136 32.128 28.2397 31.9613 28.4064C31.7946 28.5731 31.5685 28.6668 31.3328 28.6668H18.8883C18.6526 28.6668 18.4265 28.5731 18.2598 28.4064C18.0931 28.2397 17.9995 28.0136 17.9995 27.7779V20.6668C17.9995 20.431 18.0931 20.2049 18.2598 20.0382C18.4265 19.8715 18.6526 19.7779 18.8883 19.7779H20.6661C20.86 19.788 21.0518 19.7344 21.2123 19.6253C21.3728 19.5161 21.4932 19.3574 21.555 19.1734L22.035 17.7157C22.0946 17.5391 22.2083 17.3858 22.3598 17.2773C22.5113 17.1688 22.6931 17.1107 22.8795 17.1112H27.7772C28.013 17.1112 28.2391 17.0176 28.4058 16.8509C28.5725 16.6842 28.6661 16.4581 28.6661 16.2223C28.6661 15.9866 28.5725 15.7605 28.4058 15.5938C28.2391 15.4271 28.013 15.3334 27.7772 15.3334H22.835C22.2764 15.3345 21.7322 15.5109 21.2792 15.8379C20.8263 16.1648 20.4875 16.6258 20.3106 17.1557L20.0261 18.0446H18.8883C18.1811 18.0446 17.5028 18.3255 17.0027 18.8256C16.5026 19.3257 16.2217 20.004 16.2217 20.7112V27.8223C16.2217 28.5296 16.5026 29.2079 17.0027 29.7079C17.5028 30.208 18.1811 30.489 18.8883 30.489H31.3328C32.04 30.489 32.7183 30.208 33.2184 29.7079C33.7185 29.2079 33.9995 28.5296 33.9995 27.8223V21.6001C34.0055 21.4797 33.987 21.3593 33.945 21.2463C33.903 21.1333 33.8385 21.0299 33.7554 20.9426C33.6722 20.8553 33.5722 20.7859 33.4613 20.7384C33.3505 20.691 33.2311 20.6666 33.1106 20.6668V20.6668ZM25.1106 19.7779C24.4073 19.7779 23.7199 19.9864 23.1352 20.3771C22.5505 20.7678 22.0948 21.3231 21.8257 21.9728C21.5566 22.6225 21.4861 23.3374 21.6233 24.0271C21.7605 24.7168 22.0992 25.3503 22.5964 25.8476C23.0937 26.3449 23.7272 26.6835 24.4169 26.8207C25.1066 26.9579 25.8215 26.8875 26.4712 26.6183C27.1209 26.3492 27.6762 25.8935 28.0669 25.3088C28.4576 24.7241 28.6661 24.0367 28.6661 23.3334C28.6661 22.3904 28.2915 21.4861 27.6247 20.8193C26.9579 20.1525 26.0536 19.7779 25.1106 19.7779V19.7779ZM25.1106 25.1112C24.759 25.1112 24.4152 25.007 24.1229 24.8116C23.8305 24.6163 23.6027 24.3386 23.4681 24.0138C23.3336 23.6889 23.2984 23.3315 23.3669 22.9866C23.4355 22.6418 23.6049 22.325 23.8535 22.0764C24.1021 21.8277 24.4189 21.6584 24.7637 21.5898C25.1086 21.5212 25.466 21.5564 25.7909 21.691C26.1157 21.8255 26.3934 22.0534 26.5887 22.3458C26.7841 22.6381 26.8883 22.9818 26.8883 23.3334C26.8883 23.8049 26.701 24.2571 26.3676 24.5905C26.0342 24.9239 25.5821 25.1112 25.1106 25.1112ZM34.8883 15.3334H33.9995V14.4446C33.9995 14.2088 33.9058 13.9827 33.7391 13.816C33.5724 13.6493 33.3463 13.5557 33.1106 13.5557C32.8748 13.5557 32.6487 13.6493 32.482 13.816C32.3153 13.9827 32.2217 14.2088 32.2217 14.4446V15.3334H31.3328C31.097 15.3334 30.8709 15.4271 30.7042 15.5938C30.5375 15.7605 30.4439 15.9866 30.4439 16.2223C30.4439 16.4581 30.5375 16.6842 30.7042 16.8509C30.8709 17.0176 31.097 17.1112 31.3328 17.1112H32.2217V18.0001C32.2217 18.2359 32.3153 18.4619 32.482 18.6286C32.6487 18.7953 32.8748 18.889 33.1106 18.889C33.3463 18.889 33.5724 18.7953 33.7391 18.6286C33.9058 18.4619 33.9995 18.2359 33.9995 18.0001V17.1112H34.8883C35.1241 17.1112 35.3502 17.0176 35.5169 16.8509C35.6836 16.6842 35.7772 16.4581 35.7772 16.2223C35.7772 15.9866 35.6836 15.7605 35.5169 15.5938C35.3502 15.4271 35.1241 15.3334 34.8883 15.3334Z" fill="white" stroke="white" stroke-width="2" mask="url(#path-2-inside-1_550_11296)"/>
</g>
</g>
</g>
<defs>
<filter id="filter0_d_550_11296" x="0" y="0" width="52" height="52" filterUnits="userSpaceOnUse" color-interpolation-filters="sRGB">
<feFlood flood-opacity="0" result="BackgroundImageFix"/>
<feColorMatrix in="SourceAlpha" type="matrix" values="0 0 0 0 0 0 0 0 0 0 0 0 0 0 0 0 0 0 127 0" result="hardAlpha"/>
<feOffset dy="4"/>
<feGaussianBlur stdDeviation="5"/>
<feComposite in2="hardAlpha" operator="out"/>
<feColorMatrix type="matrix" values="0 0 0 0 0.0862745 0 0 0 0 0.0862745 0 0 0 0 0.0862745 0 0 0 0.25 0"/>
<feBlend mode="normal" in2="BackgroundImageFix" result="effect1_dropShadow_550_11296"/>
<feBlend mode="normal" in="SourceGraphic" in2="effect1_dropShadow_550_11296" result="shape"/>
</filter>
</defs>
</svg>
