<svg width="59" height="59" viewBox="0 0 59 59" fill="none" xmlns="http://www.w3.org/2000/svg">
<g filter="url(#filter0_d_1124_917)">
<circle cx="29.5" cy="27.5" r="17.5" fill="white"/>
</g>
<path d="M41.1674 19.034C37.4333 17.6994 33.2738 17.6488 29.5 18.892C25.7262 17.6488 21.5667 17.6994 17.8326 19.034C17.6237 19.1082 17.4446 19.2364 17.3184 19.402C17.1923 19.5676 17.1249 19.763 17.125 19.963V35C17.1249 35.1634 17.1699 35.3244 17.256 35.4687C17.3421 35.6131 17.4667 35.7366 17.6189 35.8282C17.7711 35.9199 17.9463 35.977 18.129 35.9946C18.3118 36.0122 18.4967 35.9896 18.6674 35.929C22.0089 34.7338 25.7411 34.7338 29.0826 35.929C29.2078 35.9712 29.3403 35.9935 29.4741 35.995C29.4831 35.995 29.491 35.995 29.5 35.995C29.509 35.995 29.5169 35.995 29.5259 35.995C29.6597 35.9935 29.7922 35.9712 29.9174 35.929C33.2589 34.7338 36.9911 34.7338 40.3326 35.929C40.5033 35.9898 40.6881 36.0124 40.8709 35.995C41.0537 35.9775 41.2289 35.9206 41.3811 35.829C41.5334 35.7373 41.6581 35.6137 41.7442 35.4692C41.8303 35.3247 41.8752 35.1636 41.875 35V19.963C41.8751 19.763 41.8077 19.5676 41.6816 19.402C41.5554 19.2364 41.3763 19.1082 41.1674 19.034ZM28.375 33.609C25.4372 32.8441 22.3147 32.841 19.375 33.6V20.659C22.294 19.7783 25.4592 19.7828 28.375 20.672V33.609ZM39.625 33.6C36.6854 32.843 33.5646 32.843 30.625 33.6V20.672C33.5408 19.7828 36.706 19.7783 39.625 20.659V33.6Z" fill="#110982"/>
<defs>
<filter id="filter0_d_1124_917" x="0" y="0" width="59" height="59" filterUnits="userSpaceOnUse" color-interpolation-filters="sRGB">
<feFlood flood-opacity="0" result="BackgroundImageFix"/>
<feColorMatrix in="SourceAlpha" type="matrix" values="0 0 0 0 0 0 0 0 0 0 0 0 0 0 0 0 0 0 127 0" result="hardAlpha"/>
<feOffset dy="2"/>
<feGaussianBlur stdDeviation="6"/>
<feComposite in2="hardAlpha" operator="out"/>
<feColorMatrix type="matrix" values="0 0 0 0 0 0 0 0 0 0 0 0 0 0 0 0 0 0 0.1 0"/>
<feBlend mode="normal" in2="BackgroundImageFix" result="effect1_dropShadow_1124_917"/>
<feBlend mode="normal" in="SourceGraphic" in2="effect1_dropShadow_1124_917" result="shape"/>
</filter>
</defs>
</svg>
