<svg width="22" height="24" viewBox="0 0 22 24" fill="none" xmlns="http://www.w3.org/2000/svg">
<path d="M18.7298 10C18.7298 17 10.7028 23 10.7028 23C10.7028 23 2.67578 17 2.67578 10C2.67578 7.61305 3.52148 5.32387 5.02684 3.63604C6.5322 1.94821 8.57391 1 10.7028 1C12.8317 1 14.8734 1.94821 16.3788 3.63604C17.8841 5.32387 18.7298 7.61305 18.7298 10Z" stroke="#252525" stroke-width="2" stroke-linecap="round" stroke-linejoin="round"/>
<path d="M10.703 13C12.1808 13 13.3787 11.6569 13.3787 10C13.3787 8.34315 12.1808 7 10.703 7C9.22528 7 8.02734 8.34315 8.02734 10C8.02734 11.6569 9.22528 13 10.703 13Z" stroke="#252525" stroke-width="2" stroke-linecap="round" stroke-linejoin="round"/>
</svg>
