<svg width="26" height="26" viewBox="0 0 26 26" fill="none" xmlns="http://www.w3.org/2000/svg">
<path d="M21.7741 19.1643L21.7734 19.1621C21.7496 19.0916 21.742 19.0166 21.7509 18.9427C21.7598 18.8687 21.7851 18.7977 21.8249 18.7349L21.825 18.7346C23.2423 16.4939 23.784 13.8089 23.3464 11.1936C22.9088 8.57834 21.5227 6.21624 19.4532 4.55945C17.3838 2.90266 14.7763 2.06758 12.1298 2.21414C9.48329 2.36069 6.98384 3.47858 5.10975 5.35373C3.23566 7.22888 2.11856 9.72958 1.97211 12.3772C1.82565 15.0248 2.66013 17.6336 4.31592 19.7042C5.97173 21.7748 8.33259 23.1618 10.9467 23.5997C13.5605 24.0375 16.2437 23.4957 18.4831 22.078C18.5452 22.0389 18.6152 22.0141 18.6879 22.0056C18.7607 21.997 18.8345 22.0048 18.9039 22.0285L18.909 22.0302L21.7823 22.9877L23.2045 23.4616L22.7311 22.0393L21.7741 19.1643ZM17.6828 20.8094L17.6817 20.8101C15.7541 22.0307 13.4444 22.4972 11.1945 22.1203C8.94471 21.7435 6.91269 20.5497 5.48741 18.7674C4.06213 16.985 3.34374 14.7393 3.46982 12.4601C3.59589 10.1808 4.55758 8.02814 6.17071 6.41409C7.78382 4.80006 9.93507 3.83797 12.2127 3.71184C14.4903 3.58571 16.7345 4.30439 18.5158 5.73042C20.2971 7.15647 21.4903 9.18974 21.867 11.4412C22.2437 13.6926 21.7773 16.0039 20.5573 17.9328C20.3983 18.1841 20.2972 18.4678 20.2616 18.7631C20.2261 19.0582 20.2567 19.3574 20.3512 19.6391C20.3514 19.6395 20.3515 19.6399 20.3516 19.6403L20.8344 21.0908L19.3883 20.6089C19.3873 20.6085 19.3863 20.6082 19.3852 20.6078C19.1049 20.5127 18.8069 20.4812 18.5128 20.5158C18.2177 20.5505 17.9341 20.6508 17.6828 20.8094ZM12.7505 1.25002L12.7523 1.25002C14.8059 1.24654 16.8244 1.78269 18.606 2.80487C20.3875 3.82705 21.8697 5.29944 22.904 7.07476C23.9383 8.85009 24.4887 10.8661 24.4998 12.9211C24.511 14.9761 23.9827 16.998 22.9677 18.7845L22.8029 19.0745L22.9079 19.3911L24.467 24.0911L24.4673 24.0918C24.4923 24.167 24.4991 24.2471 24.4872 24.3254C24.4752 24.4037 24.4449 24.4781 24.3986 24.5423C24.3524 24.6066 24.2915 24.6589 24.2212 24.695C24.1509 24.731 24.073 24.7499 23.994 24.7499V24.7499L23.9867 24.75C23.9336 24.7505 23.8808 24.7429 23.8301 24.7274L19.1397 23.1634L18.823 23.0578L18.5325 23.2225C16.9687 24.1093 15.2222 24.625 13.4278 24.7299C11.6334 24.8348 9.83881 24.5261 8.18238 23.8276C6.52596 23.1291 5.05188 22.0594 3.87374 20.701C2.6956 19.3425 1.84486 17.7314 1.38711 15.992C0.929351 14.2526 0.876808 12.4313 1.23353 10.6683C1.59025 8.90537 2.3467 7.24793 3.44458 5.8237C4.54245 4.39947 5.95242 3.24648 7.56582 2.45353C9.17923 1.66059 10.953 1.24885 12.7505 1.25002ZM19.162 11.289C19.5369 10.9139 19.7474 10.4053 19.7474 9.87498C19.7474 9.34469 19.5369 8.83603 19.162 8.46093C18.7871 8.08581 18.2785 7.87499 17.7481 7.87499H7.75385C7.22347 7.87499 6.7149 8.08581 6.33999 8.46093C5.9651 8.83603 5.75457 9.34469 5.75457 9.87498C5.75457 10.4053 5.9651 10.9139 6.33999 11.289C6.7149 11.6642 7.22347 11.875 7.75385 11.875H17.7481C18.2785 11.875 18.7871 11.6642 19.162 11.289ZM14.1649 17.539C14.5397 17.1639 14.7503 16.6553 14.7503 16.125C14.7503 15.5947 14.5397 15.086 14.1649 14.7109C13.7899 14.3358 13.2814 14.125 12.751 14.125H7.75385C7.22347 14.125 6.7149 14.3358 6.33999 14.7109C5.9651 15.086 5.75457 15.5947 5.75457 16.125C5.75457 16.6553 5.9651 17.1639 6.33999 17.539C6.7149 17.9141 7.22347 18.125 7.75385 18.125H12.751C13.2814 18.125 13.7899 17.9141 14.1649 17.539Z" fill="#045BC8" stroke="#045BC8" stroke-width="1.5"/>
</svg>
