<svg width="60" height="60" viewBox="0 0 60 60" fill="none" xmlns="http://www.w3.org/2000/svg">
<g filter="url(#filter0_d_1124_3310)">
<circle cx="30" cy="26" r="20" fill="white"/>
</g>
<path d="M29.9631 16.1877C33.1662 16.1877 33.5446 16.1877 34.8092 16.2615C35.5721 16.2711 36.3277 16.4116 37.0431 16.6769C37.5672 16.8732 38.0382 17.1893 38.4185 17.6C38.8263 17.9826 39.142 18.4529 39.3415 18.9754C39.6068 19.6907 39.7473 20.4463 39.7569 21.2092C39.8215 22.4738 39.8308 22.8523 39.8308 26.0554C39.8308 29.2585 39.8308 29.6462 39.7569 30.9108C39.7465 31.6706 39.606 32.423 39.3415 33.1354C39.1453 33.6622 38.8293 34.1362 38.4185 34.52C38.0332 34.9248 37.5636 35.2399 37.0431 35.4431C36.3277 35.7084 35.5721 35.8489 34.8092 35.8585C33.5446 35.9138 33.1662 35.9231 29.9631 35.9231C26.76 35.9231 26.3815 35.9231 25.1077 35.8585C24.3479 35.848 23.5955 35.7075 22.8831 35.4431C22.3635 35.234 21.8937 34.918 21.5041 34.5157C21.1145 34.1134 20.8138 33.6337 20.6215 33.1077C20.3615 32.3944 20.2241 31.6422 20.2154 30.8831C20.1508 29.6185 20.1415 29.24 20.1415 26.0277C20.1415 22.8154 20.1415 22.4462 20.2154 21.1815C20.2234 20.4193 20.3608 19.664 20.6215 18.9477C20.8242 18.4268 21.1394 17.9572 21.5446 17.5723C21.923 17.1595 22.3946 16.843 22.92 16.6492C23.6324 16.3848 24.3848 16.2443 25.1446 16.2339C26.4185 16.1785 26.7969 16.16 30 16.16L29.9631 16.1877ZM30 14C26.7415 14 26.3077 14 25.0523 14.0738C24.0556 14.0917 23.0692 14.279 22.1354 14.6277C21.3374 14.9333 20.6137 15.4053 20.0123 16.0123C19.4019 16.6145 18.9295 17.342 18.6277 18.1446C18.2788 19.0752 18.0915 20.0586 18.0738 21.0523C18.0092 22.3354 18 22.7415 18 26C18 29.2585 18 29.6923 18.0738 30.9477C18.0917 31.9444 18.279 32.9307 18.6277 33.8646C18.9299 34.6643 19.4024 35.3887 20.0123 35.9877C20.6088 36.6007 21.3339 37.0736 22.1354 37.3723C23.0698 37.7203 24.0555 37.9106 25.0523 37.9354C26.3354 37.9908 26.7415 38.0092 30 38.0092C33.2585 38.0092 33.6923 38.0092 34.9477 37.9354C35.9444 37.9095 36.9299 37.7193 37.8646 37.3723C38.6661 37.0736 39.3912 36.6007 39.9877 35.9877C40.5976 35.3887 41.0701 34.6643 41.3723 33.8646C41.721 32.9307 41.9083 31.9444 41.9262 30.9477C41.9908 29.6738 42 29.2585 42 26C42 22.7415 42 22.3077 41.9262 21.0523C41.9085 20.0586 41.7212 19.0752 41.3723 18.1446C41.0705 17.342 40.5981 16.6145 39.9877 16.0123C39.3863 15.4053 38.6626 14.9333 37.8646 14.6277C36.9305 14.2798 35.9443 14.0926 34.9477 14.0738C33.6646 14.0184 33.2585 14 30 14Z" fill="#045BC8"/>
<path d="M29.963 19.8708C28.7431 19.8709 27.5506 20.2327 26.5363 20.9107C25.5221 21.5886 24.7318 22.5522 24.2654 23.6795C23.7989 24.8067 23.6774 26.047 23.916 27.2434C24.1547 28.4397 24.7429 29.5384 25.6062 30.4004C26.4694 31.2624 27.569 31.8489 28.7657 32.0858C29.9625 32.3227 31.2026 32.1993 32.3291 31.7312C33.4557 31.263 34.4181 30.4713 35.0945 29.456C35.7709 28.4408 36.131 27.2477 36.1292 26.0278C36.1267 24.394 35.476 22.828 34.3199 21.6736C33.1638 20.5192 31.5968 19.8708 29.963 19.8708ZM29.963 30.0247C29.1703 30.0265 28.3948 29.7931 27.7348 29.3541C27.0748 28.915 26.5599 28.2899 26.2552 27.558C25.9506 26.8262 25.87 26.0204 26.0235 25.2427C26.177 24.4649 26.5579 23.7503 27.1178 23.1891C27.6777 22.6279 28.3915 22.2454 29.1688 22.0901C29.9462 21.9347 30.7522 22.0135 31.4847 22.3165C32.2173 22.6194 32.8435 23.1329 33.2841 23.7919C33.7248 24.4509 33.9599 25.2258 33.9599 26.0185C33.96 27.0794 33.5391 28.0971 32.7898 28.8481C32.0405 29.5991 31.0239 30.0223 29.963 30.0247Z" fill="#045BC8"/>
<path d="M37.8097 19.6216C37.8097 19.9064 37.7252 20.1848 37.567 20.4216C37.4088 20.6584 37.1839 20.843 36.9207 20.952C36.6576 21.061 36.3681 21.0895 36.0888 21.0339C35.8094 20.9783 35.5528 20.8412 35.3515 20.6398C35.1501 20.4384 35.0129 20.1818 34.9574 19.9025C34.9018 19.6232 34.9303 19.3336 35.0393 19.0705C35.1483 18.8074 35.3329 18.5825 35.5697 18.4243C35.8065 18.266 36.0849 18.1816 36.3697 18.1816C36.7516 18.1816 37.1179 18.3333 37.3879 18.6033C37.658 18.8734 37.8097 19.2397 37.8097 19.6216Z" fill="#045BC8"/>
<defs>
<filter id="filter0_d_1124_3310" x="0" y="0" width="60" height="60" filterUnits="userSpaceOnUse" color-interpolation-filters="sRGB">
<feFlood flood-opacity="0" result="BackgroundImageFix"/>
<feColorMatrix in="SourceAlpha" type="matrix" values="0 0 0 0 0 0 0 0 0 0 0 0 0 0 0 0 0 0 127 0" result="hardAlpha"/>
<feOffset dy="4"/>
<feGaussianBlur stdDeviation="5"/>
<feComposite in2="hardAlpha" operator="out"/>
<feColorMatrix type="matrix" values="0 0 0 0 0.0862745 0 0 0 0 0.0862745 0 0 0 0 0.0862745 0 0 0 0.25 0"/>
<feBlend mode="normal" in2="BackgroundImageFix" result="effect1_dropShadow_1124_3310"/>
<feBlend mode="normal" in="SourceGraphic" in2="effect1_dropShadow_1124_3310" result="shape"/>
</filter>
</defs>
</svg>
