<svg width="25" height="24" viewBox="0 0 25 24" fill="none" xmlns="http://www.w3.org/2000/svg">
<path d="M4.56023 10.6464L3.70668 11.4999H4.91379H22.4998C22.6324 11.4999 22.7596 11.5526 22.8533 11.6464C22.9471 11.7401 22.9998 11.8673 22.9998 11.9999C22.9998 12.1325 22.9471 12.2597 22.8533 12.3535C22.7596 12.4472 22.6324 12.4999 22.4998 12.4999H4.91379H3.70668L4.56023 13.3535L7.85323 16.6465L7.85318 16.6465L7.85943 16.6526C7.90718 16.6987 7.94528 16.7539 7.97148 16.8149C7.99769 16.8759 8.01148 16.9415 8.01206 17.0079C8.01263 17.0743 7.99998 17.1401 7.97484 17.2015C7.9497 17.263 7.91257 17.3188 7.86563 17.3658C7.81868 17.4127 7.76285 17.4498 7.70141 17.475C7.63996 17.5001 7.57412 17.5128 7.50773 17.5122C7.44134 17.5116 7.37573 17.4978 7.31473 17.4716C7.25372 17.4454 7.19855 17.4073 7.15243 17.3596L7.15249 17.3595L7.14634 17.3534L2.14639 12.3534C2.14638 12.3534 2.14636 12.3534 2.14634 12.3534C2.05264 12.2596 2 12.1325 2 11.9999C2 11.8674 2.05264 11.7402 2.14634 11.6465C2.14636 11.6465 2.14638 11.6464 2.14639 11.6464L7.14274 6.65008C7.23675 6.56057 7.36194 6.5111 7.49184 6.51223C7.62294 6.51337 7.74835 6.56595 7.84105 6.65865C7.93376 6.75136 7.98634 6.87676 7.98748 7.00786C7.98861 7.13776 7.93914 7.26295 7.84963 7.35697L4.56023 10.6464Z" fill="black" stroke="#045BC8"/>
</svg>
