<svg width="26" height="26" viewBox="0 0 26 26" fill="none" xmlns="http://www.w3.org/2000/svg">
<path d="M1.2625 2.60027V2.6C1.2625 1.42415 2.17263 0.5 3.25 0.5H23.25C24.3306 0.5 25.25 1.42748 25.25 2.6V18.2C25.25 19.3725 24.3306 20.3 23.25 20.3H5.75H5.53713L5.38958 20.4534L1.25066 24.7579L1.2625 2.60027ZM5.75 8.6H5.25V9.1V11.7V12.2H5.75H20.75H21.25V11.7V9.1V8.6H20.75H5.75ZM15.75 16.1H16.25V15.6V13V12.5H15.75H5.75H5.25V13V15.6V16.1H5.75H15.75ZM20.75 8.3H21.25V7.8V5.2V4.7H20.75H5.75H5.25V5.2V7.8V8.3H5.75H20.75Z" fill="#045BC8" stroke="#045BC8"/>
</svg>
