<svg width="43" height="29" viewBox="0 0 43 29" fill="none" xmlns="http://www.w3.org/2000/svg">
<path fill-rule="evenodd" clip-rule="evenodd" d="M20.3026 10.376C20.3026 14.4351 23.5931 17.7256 27.6522 17.7256C31.7113 17.7256 35.0019 14.4351 35.0019 10.376C35.0019 6.31687 31.7113 3.02632 27.6522 3.02632C23.5931 3.02632 20.3026 6.31687 20.3026 10.376ZM27.6522 0C21.9217 0 17.2763 4.64548 17.2763 10.376C17.2763 16.1064 21.9217 20.7519 27.6522 20.7519C29.9716 20.7519 32.1133 19.9909 33.8411 18.7049L40.4169 25.2807C41.0078 25.8716 41.9659 25.8716 42.5568 25.2807C43.1477 24.6898 43.1477 23.7317 42.5568 23.1407L35.9811 16.565C37.2671 14.8371 38.0282 12.6954 38.0282 10.376C38.0282 4.64548 33.3827 0 27.6522 0ZM2.90123 24.2106C1.64768 24.2106 0.631485 25.2268 0.631485 26.4803C0.631485 27.7339 1.64768 28.7501 2.90123 28.7501H27.1118C28.3654 28.7501 29.3816 27.7339 29.3816 26.4803C29.3816 25.2268 28.3654 24.2106 27.1118 24.2106H2.90123ZM0.631485 14.3752C0.631485 13.1216 1.64768 12.1054 2.90123 12.1054H13.4934C14.7469 12.1054 15.7631 13.1216 15.7631 14.3752C15.7631 15.6287 14.7469 16.6449 13.4934 16.6449H2.90123C1.64768 16.6449 0.631485 15.6287 0.631485 14.3752ZM2.90123 0C1.64768 0 0.631485 1.0162 0.631485 2.26974C0.631485 3.52329 1.64768 4.53948 2.90123 4.53948H15.0065C16.2601 4.53948 17.2763 3.52329 17.2763 2.26974C17.2763 1.0162 16.2601 0 15.0065 0H2.90123Z" fill="#045BC8"/>
</svg>
