<svg width="24" height="24" viewBox="0 0 24 24" fill="none" xmlns="http://www.w3.org/2000/svg">
<path d="M19.9396 10.6465L15.6501 6.35708C15.5606 6.26307 15.5112 6.13788 15.5123 6.00798C15.5134 5.87689 15.566 5.75148 15.6587 5.65878C15.7514 5.56607 15.8768 5.51349 16.0079 5.51235C16.1378 5.51122 16.263 5.56069 16.357 5.65019L22.3534 11.6465C22.4471 11.7403 22.4998 11.8675 22.4998 12C22.4998 12.1326 22.4471 12.2598 22.3534 12.3535L16.357 18.3499C16.263 18.4394 16.1378 18.4889 16.0079 18.4877C15.8768 18.4866 15.7514 18.434 15.6587 18.3413C15.566 18.2486 15.5134 18.1232 15.5123 17.9921C15.5112 17.8622 15.5606 17.737 15.6501 17.643L19.9396 13.3536L20.7931 12.5H19.586H2C1.86739 12.5 1.74021 12.4474 1.64645 12.3536C1.55268 12.2598 1.5 12.1326 1.5 12C1.5 11.8674 1.55268 11.7403 1.64645 11.6465C1.74021 11.5527 1.86739 11.5 2 11.5H19.586H20.7931L19.9396 10.6465Z" fill="black" stroke="#045BC8"/>
</svg>
