<svg width="32" height="32" viewBox="0 0 32 32" fill="none" xmlns="http://www.w3.org/2000/svg">
<path d="M13.3333 27.9999H18.6666C18.6666 28.7072 18.3857 29.3854 17.8856 29.8855C17.3855 30.3856 16.7072 30.6666 16 30.6666C15.2927 30.6666 14.6145 30.3856 14.1144 29.8855C13.6143 29.3854 13.3333 28.7072 13.3333 27.9999ZM4.1013 24.5106C4.00037 24.2669 3.97398 23.9987 4.02548 23.74C4.07698 23.4813 4.20406 23.2437 4.39064 23.0572L6.66664 20.7813V13.3333C6.67093 11.0913 7.48143 8.92558 8.95016 7.23164C10.4189 5.5377 12.4479 4.42851 14.6666 4.10659V2.66659C14.6666 2.31296 14.8071 1.97382 15.0572 1.72378C15.3072 1.47373 15.6463 1.33325 16 1.33325C16.3536 1.33325 16.6927 1.47373 16.9428 1.72378C17.1928 1.97382 17.3333 2.31296 17.3333 2.66659V4.10659C19.5521 4.42851 21.5811 5.5377 23.0498 7.23164C24.5185 8.92558 25.329 11.0913 25.3333 13.3333V20.7813L27.6093 23.0572C27.7957 23.2437 27.9227 23.4813 27.9741 23.7399C28.0255 23.9985 27.9991 24.2665 27.8982 24.5101C27.7973 24.7537 27.6265 24.9619 27.4072 25.1085C27.188 25.255 26.9303 25.3332 26.6666 25.3333H5.3333C5.06962 25.3333 4.81183 25.2552 4.59254 25.1088C4.37325 24.9623 4.2023 24.7542 4.1013 24.5106ZM8.55197 22.6666H23.448L23.0573 22.2759C22.8072 22.0259 22.6667 21.6868 22.6666 21.3333V13.3333C22.6666 11.5651 21.9643 9.86945 20.714 8.61921C19.4638 7.36896 17.7681 6.66658 16 6.66658C14.2319 6.66658 12.5362 7.36896 11.2859 8.61921C10.0357 9.86945 9.3333 11.5651 9.3333 13.3333V21.3333C9.33323 21.6868 9.1927 22.0259 8.94264 22.2759L8.55197 22.6666Z" fill="#045BC8"/>
</svg>
