<svg width="60" height="60" viewBox="0 0 60 60" fill="none" xmlns="http://www.w3.org/2000/svg">
<path d="M30 5C25.0555 5 20.222 6.46622 16.1108 9.21326C11.9995 11.9603 8.79521 15.8648 6.90302 20.4329C5.01083 25.0011 4.51575 30.0277 5.48038 34.8773C6.44501 39.7268 8.82603 44.1814 12.3223 47.6777C15.8187 51.174 20.2732 53.555 25.1228 54.5196C29.9723 55.4843 34.9989 54.9892 39.5671 53.097C44.1353 51.2048 48.0397 48.0005 50.7867 43.8893C53.5338 39.778 55 34.9445 55 30C55 26.717 54.3534 23.4661 53.097 20.4329C51.8406 17.3998 49.9991 14.6438 47.6777 12.3223C45.3562 10.0009 42.6002 8.15938 39.5671 6.90301C36.534 5.64664 33.2831 5 30 5ZM30 17.5C31.4834 17.5 32.9334 17.9399 34.1668 18.764C35.4002 19.5881 36.3615 20.7594 36.9291 22.1299C37.4968 23.5003 37.6453 25.0083 37.3559 26.4632C37.0665 27.918 36.3522 29.2544 35.3033 30.3033C34.2544 31.3522 32.918 32.0665 31.4632 32.3559C30.0083 32.6453 28.5003 32.4968 27.1299 31.9291C25.7594 31.3614 24.5881 30.4001 23.764 29.1668C22.9399 27.9334 22.5 26.4834 22.5 25C22.5 23.0109 23.2902 21.1032 24.6967 19.6967C26.1032 18.2902 28.0109 17.5 30 17.5ZM30 50C25.1387 50.0003 20.4453 48.2218 16.805 45C20.4476 41.7828 25.1401 40.0073 30 40.0073C34.8599 40.0073 39.5524 41.7828 43.195 45C39.5547 48.2218 34.8613 50.0003 30 50Z" fill="#EB5A23"/>
</svg>
