<svg width="60" height="60" viewBox="0 0 60 60" fill="none" xmlns="http://www.w3.org/2000/svg">
<g filter="url(#filter0_d_1124_3316)">
<circle cx="30" cy="26" r="20" fill="white"/>
</g>
<path d="M40.5396 20.4225C40.4208 19.9477 40.1789 19.5127 39.8382 19.1614C39.4976 18.8101 39.0703 18.5549 38.5996 18.4217C36.8796 18.0015 29.9996 18.0015 29.9996 18.0015C29.9996 18.0015 23.1196 18.0015 21.3996 18.4617C20.9288 18.5949 20.5016 18.8501 20.1609 19.2014C19.8203 19.5527 19.5784 19.9877 19.4596 20.4625C19.1448 22.2087 18.9908 23.9801 18.9996 25.7545C18.9884 27.5422 19.1424 29.3272 19.4596 31.0866C19.5906 31.5466 19.8379 31.965 20.1777 32.3015C20.5176 32.638 20.9384 32.8811 21.3996 33.0073C23.1196 33.4675 29.9996 33.4675 29.9996 33.4675C29.9996 33.4675 36.8796 33.4675 38.5996 33.0073C39.0703 32.8741 39.4976 32.6189 39.8382 32.2676C40.1789 31.9163 40.4208 31.4813 40.5396 31.0065C40.852 29.2735 41.0059 27.5155 40.9996 25.7545C41.0108 23.9668 40.8568 22.1818 40.5396 20.4225V20.4225Z" stroke="#045BC8" stroke-width="2" stroke-linecap="round" stroke-linejoin="round"/>
<path d="M27.75 29.0258L33.5 25.7545L27.75 22.4833V29.0258Z" stroke="#045BC8" stroke-width="2" stroke-linecap="round" stroke-linejoin="round"/>
<defs>
<filter id="filter0_d_1124_3316" x="0" y="0" width="60" height="60" filterUnits="userSpaceOnUse" color-interpolation-filters="sRGB">
<feFlood flood-opacity="0" result="BackgroundImageFix"/>
<feColorMatrix in="SourceAlpha" type="matrix" values="0 0 0 0 0 0 0 0 0 0 0 0 0 0 0 0 0 0 127 0" result="hardAlpha"/>
<feOffset dy="4"/>
<feGaussianBlur stdDeviation="5"/>
<feComposite in2="hardAlpha" operator="out"/>
<feColorMatrix type="matrix" values="0 0 0 0 0.0862745 0 0 0 0 0.0862745 0 0 0 0 0.0862745 0 0 0 0.25 0"/>
<feBlend mode="normal" in2="BackgroundImageFix" result="effect1_dropShadow_1124_3316"/>
<feBlend mode="normal" in="SourceGraphic" in2="effect1_dropShadow_1124_3316" result="shape"/>
</filter>
</defs>
</svg>
